<?xml version="1.0" encoding="UTF-8"?>
<svg id="Layer_2" data-name="Layer 2" xmlns="http://www.w3.org/2000/svg" viewBox="0 0 355.91 82.9">
  <defs>
    <style>
      .cls-1 {
        fill: #2c2c2c;
      }
    </style>
  </defs>
  <g id="Layer_1-2" data-name="Layer 1">
    <g>
      <path class="cls-1" d="M0,82.9V0h15.77l53.2,63.33V0h13.93v82.9h-15.78L13.82,19.46v63.44H0Z"/>
      <path class="cls-1" d="M102.42,80.77c-2.34-1.42-4.22-3.3-5.64-5.64-1.42-2.34-2.13-4.89-2.13-7.66V31.55c0-2.76.71-5.31,2.13-7.66,1.42-2.34,3.3-4.22,5.64-5.64,2.34-1.42,4.89-2.13,7.66-2.13h36.96c2.84,0,5.43.69,7.77,2.07,2.34,1.38,4.2,3.24,5.58,5.58,1.38,2.34,2.07,4.93,2.07,7.77v24.87h-54.12v10.59c0,.62.21,1.13.63,1.55.42.42.94.63,1.55.63h51.93v13.7h-52.39c-2.76,0-5.32-.71-7.66-2.13ZM108.35,43.87h40.42v-11.86c0-.61-.21-1.13-.63-1.55-.42-.42-.94-.63-1.55-.63h-36.04c-.62,0-1.13.21-1.55.63s-.63.94-.63,1.55v11.86Z"/>
      <path class="cls-1" d="M194.59,82.9l-26.25-66.78h14.62l17.16,41.8,18.19-41.8h14.85l19.34,42.03,15.89-42.03h14.74l-25.22,66.78h-10.82l-21.3-47.09-20.27,47.09h-10.94Z"/>
      <path class="cls-1" d="M295.75,80.77c-2.34-1.42-4.22-3.3-5.64-5.64-1.42-2.34-2.13-4.89-2.13-7.66v-2.19h13.7v1.73c0,.62.21,1.13.63,1.55.42.42.94.63,1.55.63h36.04c.61,0,1.13-.21,1.55-.63s.63-.94.63-1.55v-8.52c0-.54-.21-1.02-.63-1.44-.42-.42-.94-.63-1.55-.63h-36.5c-2.76,0-5.32-.71-7.66-2.13-2.34-1.42-4.22-3.3-5.64-5.64-1.42-2.34-2.13-4.89-2.13-7.66v-9.44c0-2.76.71-5.31,2.13-7.66,1.42-2.34,3.3-4.22,5.64-5.64,2.34-1.42,4.89-2.13,7.66-2.13h36.96c2.84,0,5.43.71,7.77,2.13,2.34,1.42,4.22,3.3,5.64,5.64,1.42,2.34,2.13,4.89,2.13,7.66v2.19h-13.82v-1.73c0-.61-.21-1.13-.63-1.55-.42-.42-.94-.63-1.55-.63h-36.04c-.62,0-1.13.21-1.55.63s-.63.94-.63,1.55v8.52c0,.54.21,1.02.63,1.44.42.42.94.63,1.55.63h36.5c2.84,0,5.43.71,7.77,2.13,2.34,1.42,4.22,3.3,5.64,5.64,1.42,2.34,2.13,4.89,2.13,7.66v9.44c0,2.76-.71,5.32-2.13,7.66-1.42,2.34-3.3,4.22-5.64,5.64-2.34,1.42-4.93,2.13-7.77,2.13h-36.96c-2.76,0-5.32-.71-7.66-2.13Z"/>
    </g>
  </g>
</svg>